<svg id="visual" viewBox="0 0 900 900" width="900" height="900" xmlns="http://www.w3.org/2000/svg"
    xmlns:xlink="http://www.w3.org/1999/xlink" version="1.1">
    <path
        d="M0 340L25 352.3C50 364.7 100 389.3 150 395.5C200 401.7 250 389.3 300 421.5C350 453.7 400 530.3 450 557.2C500 584 550 561 600 531.8C650 502.7 700 467.3 750 458.3C800 449.3 850 466.7 875 475.3L900 484L900 0L875 0C850 0 800 0 750 0C700 0 650 0 600 0C550 0 500 0 450 0C400 0 350 0 300 0C250 0 200 0 150 0C100 0 50 0 25 0L0 0Z"
        fill="#7542e5"></path>
    <path
        d="M0 278L25 309.3C50 340.7 100 403.3 150 437.5C200 471.7 250 477.3 300 431.2C350 385 400 287 450 270.7C500 254.3 550 319.7 600 334.7C650 349.7 700 314.3 750 286.5C800 258.7 850 238.3 875 228.2L900 218L900 0L875 0C850 0 800 0 750 0C700 0 650 0 600 0C550 0 500 0 450 0C400 0 350 0 300 0C250 0 200 0 150 0C100 0 50 0 25 0L0 0Z"
        fill="#5c58ed"></path>
    <path
        d="M0 307L25 281.5C50 256 100 205 150 208.7C200 212.3 250 270.7 300 304C350 337.3 400 345.7 450 334.2C500 322.7 550 291.3 600 298.7C650 306 700 352 750 363.5C800 375 850 352 875 340.5L900 329L900 0L875 0C850 0 800 0 750 0C700 0 650 0 600 0C550 0 500 0 450 0C400 0 350 0 300 0C250 0 200 0 150 0C100 0 50 0 25 0L0 0Z"
        fill="#406af2"></path>
    <path
        d="M0 325L25 299.2C50 273.3 100 221.7 150 211.2C200 200.7 250 231.3 300 236.3C350 241.3 400 220.7 450 205.8C500 191 550 182 600 171.3C650 160.7 700 148.3 750 137.5C800 126.7 850 117.3 875 112.7L900 108L900 0L875 0C850 0 800 0 750 0C700 0 650 0 600 0C550 0 500 0 450 0C400 0 350 0 300 0C250 0 200 0 150 0C100 0 50 0 25 0L0 0Z"
        fill="#2078f3"></path>
    <path
        d="M0 186L25 189.7C50 193.3 100 200.7 150 210.3C200 220 250 232 300 240.5C350 249 400 254 450 255.7C500 257.3 550 255.7 600 225.8C650 196 700 138 750 133.2C800 128.3 850 176.7 875 200.8L900 225L900 0L875 0C850 0 800 0 750 0C700 0 650 0 600 0C550 0 500 0 450 0C400 0 350 0 300 0C250 0 200 0 150 0C100 0 50 0 25 0L0 0Z"
        fill="#0085f1"></path>
    <path
        d="M0 73L25 78C50 83 100 93 150 104.3C200 115.7 250 128.3 300 119.3C350 110.3 400 79.7 450 81C500 82.3 550 115.7 600 118.2C650 120.7 700 92.3 750 75.8C800 59.3 850 54.7 875 52.3L900 50L900 0L875 0C850 0 800 0 750 0C700 0 650 0 600 0C550 0 500 0 450 0C400 0 350 0 300 0C250 0 200 0 150 0C100 0 50 0 25 0L0 0Z"
        fill="#0090ed"></path>
</svg>