<svg width="1626" height="893" viewBox="0 0 1626 893" fill="none" xmlns="http://www.w3.org/2000/svg">
<path d="M388.668 601.237C372.308 616.46 354.722 627.589 346.236 634.177C364.323 634.177 411.691 633.157 436.67 634.177C461.649 635.197 446.281 634.089 471.129 639.276C495.977 644.463 518.213 649.402 560.909 660.113C603.604 670.825 641.112 683.256 684.605 692.833C728.098 702.409 745.917 704.963 778.374 707.996C810.832 711.028 820.954 709.512 846.89 707.996C872.827 706.479 879.942 706.4 908.056 700.414C936.17 694.429 954.023 688.523 987.461 678.069C1020.9 667.615 1043.32 657.081 1075.24 648.143C1107.17 639.205 1138.05 640.481 1147.07 633.379C1156.09 626.276 1131.59 622.526 1120.33 612.63C1109.08 602.734 1109.48 606.791 1090.81 583.9L1090.16 583.102C1071.82 560.628 1058.51 544.316 1026.96 498.175C995.042 451.49 962.801 396.134 931.199 350.474C899.597 304.813 894.01 298.92 868.952 269.872C843.893 240.823 833.519 229.81 805.907 205.231C778.295 180.651 762.254 169 730.891 146.974C699.528 124.948 684.525 114.813 649.092 95.1011C613.659 75.3895 594.825 65.7332 553.726 48.4158C512.627 31.0983 477.354 18.1701 443.597 8.5138C409.84 -1.14248 401.779 0.134376 384.941 0.134376C368.102 0.134376 367.943 2.6083 359.404 8.5138C350.864 14.4193 345.677 17.2124 342.246 29.6618C338.814 42.1113 338.016 51.7675 342.246 70.7609C346.475 89.7542 349.268 93.904 363.394 124.629C377.519 155.353 396.832 188.392 412.872 224.383C428.913 260.375 433.94 273.303 443.597 304.586C453.253 335.87 457.642 344.575 461.154 380.799C464.665 417.024 467.777 450.258 461.154 485.71C454.53 521.162 442.532 534.952 428.035 558.058C413.538 581.163 405.028 586.013 388.668 601.237Z" fill="#092A3B"/>
<path d="M1564.1 572.49C1570.36 572.264 1512.77 597.675 1509.46 599.69C1506.15 601.705 1429.14 628.337 1422.76 630.048C1416.38 631.758 1385.52 640.879 1366.9 641.462C1348.28 642.045 1330.47 640.212 1318.33 639.276C1306.19 638.341 1260.16 626.676 1253.35 623.839C1246.54 621.001 1186.81 611.394 1183.26 609.934C1179.71 608.474 1154.5 599.69 1137.5 588C1120.5 576.31 1097.51 553.681 1097.51 553.681L1062.84 507.161L1021.8 448.146L1001.91 417.039C1001.91 417.039 993.489 405.57 994.953 403.058C996.416 400.546 1002.03 399.712 1004.54 399.712C1007.04 399.712 1051.67 400.546 1052.64 400.546C1053.61 400.546 1092.87 406.375 1112.38 409.289L1174.56 424.346L1230.41 442.075L1273.88 456.161L1318.33 473.889C1318.33 473.889 1345.98 487.391 1347.47 488.947C1348.96 490.502 1361.73 496.674 1361.31 498.175C1360.9 499.676 1345.34 497.35 1335.57 495.018C1325.81 492.686 1294.53 488.947 1294.53 488.947H1250.33L1228.23 495.018C1228.23 495.018 1217.08 502.361 1215.84 504.49C1214.6 506.618 1209.75 513.205 1210.67 516.223C1211.6 519.24 1214.77 524.22 1217.78 527.075C1220.8 529.931 1242.84 542.143 1244.74 543.59C1246.65 545.037 1284.37 555.634 1286.03 557.19C1287.68 558.746 1356.21 571.519 1356.21 571.519C1356.21 571.519 1417.08 578.033 1421.06 578.562C1425.03 579.09 1495.75 578.562 1504.36 578.562C1512.96 578.562 1529.9 576.034 1534.96 575.423C1540.03 574.812 1557.84 572.716 1564.1 572.49Z" fill="#0B6D94"/>
<path d="M0.0440674 572.085C9.24063 577.14 27.7484 587.336 28.2072 587.68C28.6659 588.025 83.8272 610.664 111.35 621.941L169.694 636.563C169.694 636.563 184.686 641.2 191.147 641.2C197.609 641.2 238.515 643.223 252.471 641.2C266.426 639.177 283.237 632.801 298.176 625.812C313.115 618.823 346.897 603.13 348.475 601.237C350.052 599.343 385.553 572.693 388.668 568.623C391.782 564.553 422.538 518.156 425.416 513.501C428.294 508.845 436.189 488.416 436.67 479.279C437.151 470.142 440.115 430.049 440.115 430.049C440.115 430.049 441.089 414.21 440.115 413.634C439.141 413.058 436.67 412.674 419.298 416.417C401.926 420.161 376.725 425.994 376.725 425.994L338.369 438.397L295.879 452.866L257.294 467.106C257.294 467.106 222.677 483.98 219.168 485.71C215.659 487.44 201.169 497.907 202.668 498.171C204.166 498.436 218.622 495.88 218.622 495.88L240.298 492.83C240.298 492.83 259.271 490.665 263.495 489.614C267.719 488.564 303.757 488.903 309.889 489.614C316.022 490.326 323.532 491.797 327.574 492.83C340.851 499.118 348.932 504.385 348.475 515.873C348.475 515.873 349.062 524.697 339.977 531.415C330.892 538.134 309.889 547.263 309.889 547.263L272.223 558.058L228.125 566.785L149.117 576.202H63.6777C62.759 576.202 39.6479 574.518 28.2072 573.676L0.0440674 572.085Z" fill="#0B6D94"/>
<path d="M856.034 326.418C915.391 386.905 975.011 463.796 1004.76 498.14C980.709 464.471 926.638 382.488 884.523 329.795C842.408 277.103 842.817 276.43 794.182 234.678C745.547 192.925 702.671 158.09 641.348 121.032C580.026 83.9742 499.967 52.1981 487.568 49.3872C475.17 46.5763 535.277 77.7137 579.356 106.978C623.436 136.242 652.633 151.819 707.968 195.707L709.578 196.984C763.956 240.111 797.254 266.52 856.034 326.418Z" fill="#077CA7"/>
<path d="M907.343 892.88L1030.61 887.244C1106.2 875.162 1148.14 868.1 1217.02 851.699C1217.02 851.699 1281.97 833.712 1277.05 831.163C1272.12 828.613 1153.04 839.851 1153.04 839.851C1153.04 839.851 1057.87 841.46 1047.19 839.851C1036.52 838.243 950.829 824.844 950.829 824.844L796.803 790.879L630.139 736.378C630.139 736.378 521.13 704.452 507.708 700.833C494.287 697.214 464.394 679.506 411.343 679.507C358.293 679.507 320.361 678.967 314.978 679.507C309.596 680.047 274.123 685.986 281.804 688.195C289.484 690.404 323.218 695.494 327.15 696.512C331.083 697.531 368.69 707.152 368.69 707.152L411.343 723.74C411.343 723.74 451.119 741.907 446.098 741.907C441.077 741.907 416.083 741.907 416.083 741.907L344.994 736.378C344.994 736.378 178.846 729.761 177.54 736.378C176.233 742.994 416.083 807.466 416.083 807.466L589.066 851.699L762.048 881.715L835.507 887.244L907.343 892.88Z" fill="#0684B4"/>
<path d="M894.499 733.903C874.829 728.381 912.658 745.732 918.059 747.524C923.459 749.315 938.031 755.376 950.829 760.408C950.829 760.408 985.993 775.799 1006.78 780.655C1027.56 785.511 1061.99 792.803 1067.52 792.803C1073.04 792.803 1099.91 796.484 1099.91 796.484C1099.91 796.484 1250.78 794.821 1260.05 792.803C1269.31 790.785 1331.03 780.243 1374.9 766.298C1412.48 754.353 1463.3 732.847 1468.77 729.117C1474.25 725.388 1526.35 693.15 1529.88 690.464C1533.42 687.779 1590.62 636.718 1590.62 636.718C1590.62 636.718 1617.34 607.992 1623.76 601.378C1630.17 594.764 1616.3 600.26 1614.55 601.378C1612.81 602.495 1584.37 626.042 1584.37 626.042C1584.37 626.042 1554.47 649.788 1543.87 656.965C1533.27 664.142 1505.96 676.107 1505.96 676.107C1505.96 676.107 1475.9 691.513 1454.42 692.673L1347.66 684.574C1276.36 668.54 1263.73 667.64 1263.73 667.64H1205.93C1205.93 667.64 1157.31 676.951 1153.04 679.42C1148.76 681.89 1099.91 706.294 1099.91 706.294C1099.91 706.294 1060.44 728.763 1037.7 733.903C1014.96 739.043 1021.06 738.315 997.942 739.425C974.822 740.535 914.168 739.425 894.499 733.903Z" fill="#0684B4"/>
</svg>
