<svg width="811" height="710" viewBox="0 0 811 710" fill="none" xmlns="http://www.w3.org/2000/svg">
<path d="M49.6679 601.237C33.3081 616.46 15.7223 627.589 7.23589 634.177C25.3227 634.177 72.6913 633.157 97.67 634.177C122.649 635.197 107.281 634.089 132.129 639.276C156.977 644.463 179.213 649.402 221.909 660.113C264.604 670.825 302.112 683.256 345.605 692.833C389.098 702.409 406.917 704.963 439.374 707.996C471.832 711.028 481.954 709.512 507.89 707.996C533.827 706.479 540.942 706.4 569.056 700.414C597.17 694.429 615.023 688.523 648.461 678.069C681.899 667.615 704.323 657.081 736.245 648.143C768.167 639.205 799.051 640.481 808.069 633.379C817.086 626.276 792.587 622.526 781.334 612.63C770.082 602.734 770.481 606.791 751.807 583.9L751.155 583.102C732.821 560.628 719.513 544.316 687.964 498.175C656.042 451.49 623.801 396.134 592.199 350.474C560.597 304.813 555.01 298.92 529.952 269.872C504.893 240.823 494.519 229.81 466.907 205.231C439.295 180.651 423.254 169 391.891 146.974C360.528 124.948 345.525 114.813 310.092 95.1011C274.659 75.3895 255.825 65.7332 214.726 48.4158C173.627 31.0983 138.354 18.1701 104.597 8.5138C70.8397 -1.14248 62.7794 0.134376 45.9408 0.134376C29.1022 0.134376 28.9425 2.6083 20.4035 8.5138C11.8645 14.4193 6.67725 17.2124 3.24568 29.6618C-0.185885 42.1113 -0.983926 51.7675 3.24568 70.7609C7.47529 89.7542 10.2684 93.904 24.3937 124.629C38.519 155.353 57.8316 188.392 73.8722 224.383C89.9128 260.375 94.9404 273.303 104.597 304.586C114.253 335.87 118.642 344.575 122.154 380.799C125.665 417.024 128.777 450.258 122.154 485.71C115.53 521.162 103.532 534.952 89.0349 558.058C74.5378 581.163 66.0277 586.013 49.6679 601.237Z" fill="white"/>
<path d="M517.034 326.418C576.391 386.905 636.011 463.796 665.756 498.14C641.709 464.471 587.638 382.488 545.523 329.795C503.408 277.103 503.817 276.43 455.182 234.678C406.547 192.925 363.671 158.09 302.348 121.032C241.026 83.9742 160.967 52.1981 148.568 49.3872C136.17 46.5763 196.277 77.7137 240.356 106.978C284.436 136.242 313.633 151.819 368.968 195.707L370.578 196.984C424.956 240.111 458.254 266.52 517.034 326.418Z" fill="black"/>
</svg>
